P2
36 52
255
155 154 153 151 150 148 147 147 148 147 149 150 149 149 149 148 149 149 148 
148 148 147 146 146 144 144 146 148 150 151 151 151 149 150 150 149 155 154 
153 152 151 150 149 149 151 148 148 147 146 147 147 146 145 144 144 144 143 
142 141 142 141 142 144 147 150 151 150 149 149 149 149 149 152 153 153 152 
153 154 153 151 148 143 140 138 136 136 137 136 136 135 134 134 133 132 132 
133 135 137 140 144 148 149 150 150 150 149 149 149 150 152 152 152 153 154 
151 147 141 134 128 124 121 120 120 119 118 117 116 116 115 115 116 117 121 
124 130 136 141 146 149 150 151 150 150 151 149 152 153 153 153 151 145 137 
126 116 106 100 96 94 93 92 92 90 89 89 89 90 91 92 96 102 112 122 131 139 145 
148 150 150 152 153 147 151 154 152 150 146 134 122 104 90 77 69 64 62 63 62 
61 60 59 60 60 60 61 63 67 75 88 103 117 129 139 144 149 152 154 155 147 152 
153 149 143 133 115 98 78 63 49 42 38 37 36 36 34 33 33 33 33 33 34 35 40 48 
61 78 96 114 130 139 147 152 156 156 150 154 153 145 134 118 94 74 54 40 28 22 
19 18 17 15 18 17 16 16 16 16 17 18 21 28 40 56 76 99 120 133 144 151 155 154 
151 154 148 139 124 102 76 53 33 22 13 11 10 10 11 11 9 12 9 10 11 10 11 10 11 
15 24 39 62 86 108 130 140 150 153 154 151 152 145 133 114 90 62 39 22 14 9 11 
13 14 16 16 16 19 16 16 17 14 13 11 9 10 15 27 49 75 101 124 139 148 152 153 
152 153 144 129 108 82 54 32 19 13 13 19 25 30 33 34 34 36 33 33 32 29 25 18 
13 9 11 20 40 67 95 120 137 146 150 151 150 150 142 128 107 81 56 35 26 22 25 
34 43 52 59 62 61 62 59 58 57 52 45 34 23 15 14 20 38 63 92 117 135 145 149 
150 147 148 141 130 112 89 68 50 40 38 43 55 67 78 87 91 91 90 88 86 83 78 68 
53 35 22 16 21 36 60 90 115 135 144 148 150 147 148 143 135 122 104 87 73 62 
61 67 80 92 102 111 115 114 114 111 110 105 99 87 68 48 30 19 21 34 59 90 115 
134 144 148 150 144 146 143 139 132 120 109 98 89 87 92 102 110 117 124 127 
129 129 128 127 121 115 103 81 60 37 24 24 35 60 90 115 133 143 147 149 146 
148 146 146 142 135 128 120 116 112 113 119 123 127 132 135 135 136 137 137 
132 126 112 89 66 41 27 27 37 60 89 113 133 143 147 149 147 148 148 146 144 
143 140 136 133 131 129 130 131 132 133 135 136 137 140 140 139 130 116 94 67 
44 27 25 36 60 87 111 130 141 147 148 145 146 147 146 146 146 145 143 142 140 
139 138 138 137 137 138 139 140 142 141 140 131 117 94 68 44 27 25 36 58 85 108 
129 139 145 145 145 146 146 144 144 146 147 146 148 147 146 145 143 141 140 
139 138 139 139 138 137 128 114 90 63 39 24 24 36 59 85 109 128 137 143 143 
145 145 143 141 141 143 145 146 148 148 148 146 145 144 142 139 138 136 135 
132 130 121 106 82 55 33 20 23 38 61 88 111 129 137 142 142 142 141 140 138 
139 141 144 146 148 149 149 148 147 147 144 140 133 128 123 118 115 104 90 69 
47 29 19 25 41 66 92 114 131 137 141 142 143 141 140 139 139 141 144 146 148 
149 149 148 148 148 143 137 125 113 103 95 89 78 68 51 34 21 19 29 48 75 101 
120 134 138 140 140 145 143 142 141 142 143 145 146 147 149 149 147 147 146 
139 131 116 98 81 69 62 51 45 34 20 15 21 36 59 87 112 128 137 140 141 140 145 
143 142 143 144 146 147 149 148 150 150 147 147 145 137 127 105 83 61 47 38 28 
26 18 14 14 24 43 67 96 119 133 139 141 141 141 146 145 145 145 147 148 149 
150 149 148 148 147 146 145 135 122 99 74 48 31 20 14 12 9 7 14 25 46 75 102 
123 136 141 142 141 141 146 145 145 146 147 149 150 150 150 150 149 147 145 
143 133 120 95 69 44 27 16 10 8 6 8 14 25 46 74 101 123 135 141 142 142 141 
145 145 145 145 147 149 150 151 151 150 149 146 144 141 132 121 98 73 48 32 21 
16 14 12 12 15 25 44 70 97 119 133 139 142 142 141 145 145 144 144 146 148 150 
152 151 150 149 146 144 142 135 125 105 82 60 46 36 30 27 23 19 19 25 41 63 89 
114 129 138 141 142 142 146 145 144 143 144 147 150 152 153 151 150 148 145 
144 138 130 115 96 79 69 60 53 47 40 31 26 28 39 56 81 108 125 137 142 144 143 
147 146 144 143 143 146 149 151 154 153 151 149 147 145 141 135 127 114 103 
96 88 82 71 59 45 34 31 39 52 76 105 123 137 143 145 144 148 147 146 144 144 
146 148 150 153 152 151 150 148 148 145 140 135 128 123 118 112 105 91 75 57 
41 34 39 51 75 104 122 137 144 147 146 148 148 147 146 145 146 148 150 151 150 
150 149 149 149 148 145 142 139 136 133 128 121 106 86 64 45 34 39 51 75 105 
122 138 145 149 148 148 148 147 147 149 148 147 149 148 148 149 149 149 149 
150 147 144 144 142 142 138 130 113 90 64 44 32 35 49 72 99 123 138 147 149 
150 149 149 148 147 147 146 144 144 143 142 144 145 146 148 148 146 146 146 
144 144 141 133 115 92 63 42 30 32 46 70 98 123 140 148 151 152 150 150 149 
148 146 143 139 136 133 132 135 140 144 148 150 149 146 145 144 144 142 133 
116 92 64 42 29 31 45 70 99 124 141 150 153 154 152 151 150 148 143 136 129 
123 118 117 121 129 137 144 148 148 145 144 142 144 141 133 115 92 65 44 32 33 
47 72 101 125 142 151 153 154 153 151 150 145 136 125 113 102 96 95 100 111 
123 133 140 142 141 140 138 139 136 127 111 89 66 48 37 38 50 74 101 125 142 
150 152 153 155 152 150 143 128 112 94 78 71 70 77 90 105 120 130 134 135 133 
131 131 127 118 104 85 64 49 41 42 54 75 101 123 140 148 150 151 157 153 150 
140 120 100 78 58 48 46 52 65 81 97 109 114 117 116 114 113 108 101 90 73 57 
44 39 42 54 74 99 121 137 145 147 148 157 152 149 138 115 93 69 46 32 28 32 43 
57 71 83 88 91 90 88 88 84 77 69 54 48 37 34 39 51 72 97 118 135 143 145 145 
153 152 146 137 119 93 65 41 26 17 18 26 35 45 52 58 61 61 60 59 57 51 43 37 
29 26 26 35 50 70 96 117 132 138 142 143 151 151 146 137 121 97 69 44 26 15 12 
15 19 25 29 33 36 35 35 34 33 30 25 20 20 19 24 37 55 77 101 119 132 136 140 
140 149 150 146 139 125 105 80 55 36 22 15 12 12 15 16 18 20 19 18 18 18 17 15 
14 15 17 27 45 66 87 109 125 133 137 140 140 147 149 146 141 132 117 95 72 52 
37 27 20 17 17 17 18 20 20 20 19 18 18 18 18 22 27 39 58 80 101 120 132 136 
139 141 141 146 148 147 144 138 128 112 93 75 60 47 37 30 29 27 28 32 33 34 33 
32 31 30 31 38 45 58 77 97 115 130 138 139 140 141 141 147 148 147 147 143 136 
127 114 99 85 74 62 54 51 49 50 54 56 58 58 56 54 54 54 60 68 81 98 115 128 
137 141 141 141 141 141 148 148 147 149 147 143 140 132 120 110 101 91 83 80 
79 80 83 85 87 87 86 84 84 84 90 97 107 118 129 138 142 143 143 142 142 143 
148 148 148 150 150 148 148 144 139 131 125 117 109 106 104 106 109 111 113 
113 111 110 109 110 114 119 125 131 137 143 145 145 142 142 143 144 149 149 
149 149 149 150 151 152 149 146 140 134 129 125 124 123 127 129 129 129 128 
126 126 128 131 135 139 142 144 145 145 144 143 142 143 145 149 149 150 150 
150 152 153 154 154 152 148 144 140 137 136 135 136 138 138 138 138 137 137 
139 140 143 146 147 148 148 147 146 145 144 144 147 149 149 150 151 151 153 
154 155 154 153 151 149 146 143 141 140 140 141 141 141 141 141 142 145 148 
151 152 152 150 149 148 146 147 146 147 149 149 149 150 150 151 152 154 155 
154 154 153 151 148 146 143 142 142 143 142 142 143 142 144 147 151 153 154 
152 150 149 148 146 147 147 148 150 
