P2
45 53
255
143 145 148 150 151 150 150 149 148 149 151 150 148 149 150 147 147 145 144 
143 144 145 146 147 146 144 145 146 146 144 145 147 145 147 149 151 152 153 
152 150 148 146 144 144 145 139 142 146 149 151 151 150 150 149 148 149 149 
148 149 149 147 147 145 143 143 143 144 146 147 148 147 146 147 147 146 146 
147 146 148 151 152 153 153 151 149 146 144 142 142 142 137 140 145 148 150 
151 150 149 147 144 143 143 143 144 144 142 141 139 138 138 138 139 141 142 
143 142 142 142 142 142 142 142 144 146 149 151 152 152 150 149 145 143 141 
139 140 138 141 145 147 149 150 148 146 145 140 136 136 135 135 135 133 133 
131 130 130 131 131 132 133 133 134 134 133 134 135 135 134 135 138 142 145 
148 149 149 148 146 144 141 139 139 140 143 145 147 149 149 146 142 136 128 
122 120 117 116 116 116 115 114 114 114 115 115 115 115 115 116 116 115 116 
117 118 117 119 124 130 137 143 147 148 148 147 145 142 140 140 143 144 146 
147 148 147 142 136 124 113 102 97 93 91 90 90 90 89 89 90 91 90 89 89 89 90 
89 89 89 89 91 92 97 104 115 127 137 144 147 148 148 146 144 142 141 145 146 
146 147 148 146 138 129 115 98 81 73 67 64 62 61 62 62 62 63 64 62 61 60 60 60 
60 60 59 59 61 64 70 81 97 116 131 143 148 150 149 147 145 143 142 146 147 147 
147 148 145 135 124 103 83 62 51 44 40 37 35 37 37 38 39 39 37 35 34 35 34 34 
35 34 34 37 41 49 63 84 107 127 142 149 151 149 148 146 144 144 145 147 147 
148 145 142 134 118 97 72 50 37 29 24 19 18 20 22 25 26 25 24 22 21 20 20 21 
21 21 20 23 28 37 55 80 104 126 141 150 152 152 151 148 146 144 145 147 147 
148 145 142 133 116 93 68 45 30 22 18 13 14 15 17 20 23 23 23 22 22 21 20 20 
21 20 21 24 29 42 58 82 106 127 142 151 153 154 153 151 149 148 146 147 147 
147 145 142 132 115 92 65 40 25 17 13 12 15 17 19 23 27 29 31 32 35 36 35 35 
35 35 36 40 44 53 68 89 111 129 143 151 153 155 155 153 151 150 147 147 147 
147 145 142 133 115 92 65 40 24 17 15 18 24 30 32 37 43 47 51 55 59 60 60 60 
60 60 60 63 67 73 84 101 118 133 144 151 153 155 155 154 153 152 147 148 147 
148 146 143 134 117 94 66 41 26 19 21 28 38 49 53 59 65 71 78 85 89 90 90 90 
90 89 90 91 94 97 104 116 127 137 146 151 154 154 155 155 154 153 147 148 148 
149 147 144 136 119 96 68 43 28 22 27 39 54 69 77 85 91 97 105 113 117 119 119 
119 118 117 117 119 120 120 124 130 136 142 147 151 153 153 154 154 154 153 
144 146 148 150 148 145 137 120 96 69 44 29 25 33 51 70 89 100 110 115 120 128 
135 136 137 138 137 136 135 135 136 137 138 139 141 143 146 148 150 151 150 
152 153 152 151 142 145 148 150 149 146 137 121 95 68 43 29 25 36 57 79 102 
115 126 130 133 141 146 146 148 148 147 145 144 145 147 147 148 147 147 147 
147 147 148 149 149 151 152 152 151 143 146 148 151 150 147 138 121 96 66 41 
25 24 37 60 88 110 126 135 139 143 146 150 152 152 151 151 150 150 150 151 151 
151 152 151 149 147 147 148 148 149 150 150 150 150 143 146 148 151 150 147 
138 120 94 64 38 23 23 37 60 88 115 131 138 141 143 144 147 149 150 150 151 
151 150 150 151 152 153 154 153 150 148 147 147 148 149 149 149 149 150 145 
147 148 150 150 146 137 119 91 62 36 21 22 37 60 88 114 130 138 140 141 141 
144 146 148 149 150 150 149 149 150 151 155 156 155 152 149 147 147 147 148 
148 148 149 149 147 148 148 150 149 145 135 116 89 60 35 20 20 34 58 87 112 
129 138 140 140 139 142 144 146 147 149 150 150 150 152 153 155 156 155 153 
150 148 148 148 148 148 148 148 148 149 149 148 149 148 143 132 113 86 58 34 
19 18 31 55 83 108 125 135 137 137 136 137 138 140 142 144 146 148 150 152 154 
156 156 156 153 151 149 148 147 148 147 147 147 147 150 150 148 149 146 142 
130 111 84 56 33 19 17 28 49 76 98 115 125 129 130 129 130 130 133 134 136 139 
142 146 150 152 156 156 155 153 151 149 147 146 146 145 145 145 146 149 149 
148 148 145 140 129 110 84 56 33 18 15 23 39 61 82 98 107 111 114 114 114 114 
116 118 121 126 133 141 147 151 153 153 152 151 150 148 146 144 143 142 142 
143 144 149 149 148 148 145 140 128 110 86 56 31 16 12 18 28 47 63 78 85 88 91 
90 90 89 91 93 98 107 119 131 141 146 150 149 149 148 148 148 145 143 141 140 
140 141 142 149 148 147 147 145 140 130 113 86 58 31 15 9 11 19 30 43 53 61 63 
63 61 61 62 63 67 76 85 101 116 132 140 144 146 146 146 147 147 144 143 139 
139 140 141 143 148 147 145 145 143 140 130 113 87 58 32 16 8 7 11 19 26 34 39 
40 40 38 38 40 42 45 55 66 86 104 124 135 142 145 145 145 146 146 143 142 141 
142 143 144 145 148 146 144 144 142 140 131 114 89 59 33 16 8 4 5 11 17 22 25 
25 25 24 24 27 29 33 43 55 77 98 122 135 141 145 146 145 146 145 143 142 142 
143 144 146 146 150 147 144 144 142 140 132 116 91 61 33 17 9 6 6 12 18 21 23 
24 25 24 25 28 31 35 44 55 76 98 122 135 143 146 147 146 146 145 143 143 142 
143 145 147 147 151 149 145 144 142 140 132 116 91 62 35 19 12 10 13 19 26 31 
34 36 37 37 37 40 43 47 56 65 84 103 125 137 145 148 149 147 146 145 143 143 
142 144 146 148 148 153 151 148 146 143 140 132 116 91 63 38 23 17 17 23 32 43 
51 56 59 60 61 61 62 65 68 76 83 99 114 132 142 148 151 151 149 148 146 144 
144 144 145 147 148 149 154 153 150 148 144 140 132 116 92 65 41 27 22 26 37 
50 65 76 85 87 89 90 90 90 93 94 100 104 115 125 139 145 150 153 152 149 149 
148 146 146 146 146 147 148 149 153 153 150 148 144 140 131 116 94 67 43 29 25 
33 49 66 85 98 109 112 114 116 116 116 118 118 121 122 129 135 145 149 150 153 
151 149 149 148 147 147 147 147 147 148 149 150 149 147 146 143 139 131 115 
92 64 42 30 28 37 54 78 100 116 124 128 131 132 134 134 136 135 135 137 140 
144 148 150 151 151 151 150 148 147 148 149 147 148 149 150 149 148 147 145 
145 142 139 131 115 92 62 39 25 24 36 56 82 106 123 132 136 141 142 143 143 
144 143 143 144 146 148 150 152 150 151 151 150 149 149 149 149 149 150 150 
150 150 146 145 143 144 143 140 131 115 91 61 36 22 21 34 56 84 108 125 135 
141 145 147 148 147 148 148 148 148 149 149 150 151 152 152 152 150 149 149 
149 148 149 149 149 149 148 146 145 143 144 144 141 132 115 90 60 36 21 20 32 
54 82 107 126 137 143 147 148 148 148 149 149 149 150 150 151 152 153 154 154 
153 151 149 149 148 147 148 148 148 148 147 148 147 145 146 146 143 133 116 
88 59 34 20 18 31 52 80 106 126 138 143 146 146 148 148 148 148 148 148 149 
149 151 153 153 154 153 151 150 150 149 147 147 148 148 148 148 149 148 146 
148 147 143 133 115 89 59 34 19 18 30 52 80 105 125 137 141 143 143 145 145 
145 145 144 144 144 145 147 150 152 154 155 153 152 151 149 146 147 147 147 
148 148 149 148 147 148 147 143 133 115 89 59 34 19 17 29 50 76 101 119 129 
133 134 134 134 133 134 134 134 134 134 134 137 139 143 148 152 152 153 152 
150 147 148 147 147 147 147 149 148 147 148 146 142 132 114 88 58 34 19 17 27 
45 70 91 107 115 117 119 118 117 115 116 116 116 117 117 118 120 123 129 137 
144 149 152 154 152 149 149 148 147 146 146 149 147 145 145 144 140 131 113 
86 58 32 18 15 22 38 56 76 84 92 94 92 91 90 90 89 89 89 90 90 89 92 98 105 
116 132 141 151 154 156 152 152 150 147 146 146 148 146 143 143 142 138 128 
111 86 57 32 17 12 17 28 42 52 58 63 63 61 60 60 60 59 59 59 59 60 59 62 68 80 
94 114 129 144 152 157 155 154 151 148 146 146 148 146 143 143 141 137 127 109 
86 58 33 18 12 13 18 27 34 37 38 37 36 35 35 35 34 34 34 34 34 34 37 43 53 69 
95 116 137 148 156 157 155 153 149 148 148 149 147 144 144 142 138 128 110 85 
58 34 19 13 12 13 17 21 22 22 21 21 21 21 21 20 20 20 20 20 19 22 28 37 55 83 
107 131 144 153 155 155 153 151 150 150 150 148 146 146 143 139 129 111 89 64 
41 26 19 17 15 17 19 20 21 21 21 21 21 20 20 21 20 20 20 19 21 25 33 50 78 102 
126 139 150 152 153 152 151 151 152 151 150 148 147 145 141 132 116 97 75 55 
41 34 31 28 28 31 32 33 35 35 35 34 34 34 35 35 34 35 34 33 36 41 55 80 102 
124 136 146 149 150 150 150 151 152 149 148 147 147 145 143 138 124 106 89 75 
64 59 56 52 51 54 55 57 58 58 57 57 58 58 60 60 59 60 58 56 57 64 73 92 109 
127 136 144 146 147 148 149 150 151 146 145 144 145 144 144 141 128 119 106 
96 90 86 85 81 80 82 83 85 87 86 86 87 88 88 90 90 90 90 88 85 84 86 92 106 
118 132 137 143 144 146 147 147 148 149 144 143 142 142 145 146 142 136 127 
122 116 114 113 111 109 107 109 110 111 111 110 110 110 110 112 114 116 117 
116 115 112 109 110 114 120 128 136 142 144 144 145 143 144 146 149 143 142 
141 142 144 146 143 139 136 132 129 129 130 130 129 128 129 129 128 127 125 
124 124 125 128 131 134 135 135 134 131 128 128 130 133 137 141 144 144 143 
144 142 142 145 147 143 142 141 141 143 145 144 141 137 135 135 137 139 140 
141 141 141 140 138 135 132 131 131 132 137 140 144 145 146 146 143 140 141 
141 141 142 143 145 145 145 143 142 142 144 146 144 144 142 142 143 145 144 
141 138 137 138 140 142 143 144 145 147 146 143 139 135 134 134 136 140 143 
147 148 149 149 148 146 144 144 143 142 144 146 147 146 144 142 142 144 145 
145 144 143 142 143 144 143 141 140 139 140 141 143 144 145 146 149 149 146 
142 138 136 137 138 142 145 148 149 150 150 150 148 147 146 145 144 145 146 
147 147 145 143 142 144 145 
